<svg xmlns="http://www.w3.org/2000/svg" height="24" viewBox="0 -960 960 960" width="24"><path d="M314-195q-104-48-169.5-145T79-559q0-26 3-51t9-49l-46 27-40-69 191-110 110 190-70 40-54-94q-11 27-16.5 56t-5.5 60q0 97 53 176.5T354-265l-40 70Zm306-485v-80h109q-46-57-111-88.5T480-880q-55 0-104 17t-90 48l-40-70q50-35 108.5-55T479-960q79 0 151.5 29.5T760-845v-55h80v220H620ZM594-80 403-190l110-190 69 40-57 98q118-17 196.5-106.5T800-559q0-11-.5-21t-2.5-20h81q1 10 1.5 19.5t.5 20.5q0 135-80.5 241.5T590-175l44 26-40 69Z"/></svg>