<?xml version="1.0" encoding="UTF-8" standalone="no"?>
<svg
   height="48"
   viewBox="0 -960 960 960"
   width="48"
   version="1.1"
   id="svg4"
   sodipodi:docname="edit_delta.svg"
   inkscape:version="1.1.2 (0a00cf5339, 2022-02-04)"
   xmlns:inkscape="http://www.inkscape.org/namespaces/inkscape"
   xmlns:sodipodi="http://sodipodi.sourceforge.net/DTD/sodipodi-0.dtd"
   xmlns="http://www.w3.org/2000/svg"
   xmlns:svg="http://www.w3.org/2000/svg">
  <defs
     id="defs8" />
  <sodipodi:namedview
     id="namedview6"
     pagecolor="#505050"
     bordercolor="#ffffff"
     borderopacity="1"
     inkscape:pageshadow="0"
     inkscape:pageopacity="0"
     inkscape:pagecheckerboard="1"
     showgrid="false"
     inkscape:zoom="14.979167"
     inkscape:cx="23.96662"
     inkscape:cy="24"
     inkscape:window-width="2560"
     inkscape:window-height="1338"
     inkscape:window-x="1920"
     inkscape:window-y="0"
     inkscape:window-maximized="1"
     inkscape:current-layer="svg4" />
  <path
     d="m 180,-12 c -16,0 -30,-6 -42,-18 -12,-12 -18,-26 -18,-42 l 314.77801,-729.33218 37.98277,51.8615 L 180,-72 H 780 L 674.50224,-340.59406 717.73546,-385.50262 840,-72 c 5.81346,14.906497 -6,30 -18,42 -12,12 -26,18 -42,18 z m 482,-712 43,42 -285,284 v 86 h 85 l 286,-286 42,42 -303,304 H 360 v -170 z m 171,168 -171,-168 100,-100 c 11.33333,-11.33333 25.437,-17 42.311,-17 16.874,0 31.10367,6 42.689,18 l 84,85 c 11.33333,12 17,26.15733 17,42.472 0,16.31467 -6,30.15733 -18,41.528 z"
     id="path2"
     sodipodi:nodetypes="sssccccccsssscccccccccccccssccscc" />
</svg>
